<svg xmlns="http://www.w3.org/2000/svg" width="960" height="540" viewBox="0 0 960 540"><rect width="960" height="540" fill="#091116"/><path d="M0 120H960M0 180H960M0 240H960M0 300H960M0 360H960M0 420H960M120 0V540M240 0V540M360 0V540M480 0V540M600 0V540M720 0V540M840 0V540" stroke="#7ce7ff" stroke-opacity=".08"/><rect x="405" y="112" width="460" height="285" rx="15" fill="#101d24" stroke="#7ce7ff" stroke-opacity=".45" stroke-width="2"/><path d="M440 170H775M440 208H700M440 246H790M440 284H650M440 322H755" stroke="#91edb0" stroke-width="9" stroke-linecap="round" stroke-opacity=".7"/><text x="70" y="90" fill="#7ce7ff" font-family="Arial" font-size="18" font-weight="700" letter-spacing="4">CODE EXPLAINER</text><text x="70" y="177" fill="#eaf7fa" font-family="Arial" font-size="48" font-weight="800">Make the change.</text></svg>
