<svg xmlns="http://www.w3.org/2000/svg" viewBox="0 0 1200 720"><rect width="1200" height="720" fill="#fffaf5"/><circle cx="990" cy="80" r="260" fill="#f4b942" opacity=".2"/><rect x="72" y="52" width="1056" height="54" rx="27" fill="#fff" stroke="#eadfd7"/><circle cx="104" cy="79" r="9" fill="#f4623a"/><rect x="126" y="70" width="138" height="18" rx="9" fill="#241b16"/><g fill="#74665e"><rect x="846" y="72" width="62" height="14" rx="7"/><rect x="930" y="72" width="62" height="14" rx="7"/><rect x="1014" y="72" width="62" height="14" rx="7"/></g><rect x="72" y="174" width="490" height="40" rx="20" fill="#f4623a"/><rect x="72" y="232" width="550" height="68" rx="18" fill="#241b16"/><rect x="72" y="318" width="430" height="24" rx="12" fill="#74665e" opacity=".65"/><rect x="72" y="358" width="350" height="24" rx="12" fill="#74665e" opacity=".45"/><rect x="72" y="420" width="172" height="54" rx="27" fill="#f4623a"/><g transform="translate(690 152)"><rect width="360" height="370" rx="42" fill="#fff" stroke="#eadfd7"/><circle cx="155" cy="170" r="125" fill="#f4623a"/><rect x="190" y="78" width="112" height="228" rx="56" fill="#241b16"/><circle cx="246" cy="192" r="32" fill="#fffaf5"/></g><g transform="translate(72 570)"><rect width="240" height="92" rx="22" fill="#fff" stroke="#eadfd7"/><rect x="264" width="240" height="92" rx="22" fill="#fff" stroke="#eadfd7"/><rect x="528" width="240" height="92" rx="22" fill="#fff" stroke="#eadfd7"/><rect x="792" width="264" height="92" rx="22" fill="#fff" stroke="#eadfd7"/></g></svg>
