<svg preserveAspectRatio="none" overflow="visible" style="display: block;" width="11" height="11" viewBox="0 0 11 11" fill="none" xmlns="http://www.w3.org/2000/svg">
<g id="Vector"><path d="M9.38889 0.5H1.61111C0.997461 0.5 0.5 0.997461 0.5 1.61111V9.38889C0.5 10.0025 0.997461 10.5 1.61111 10.5H9.38889C10.0025 10.5 10.5 10.0025 10.5 9.38889V1.61111C10.5 0.997461 10.0025 0.5 9.38889 0.5Z" stroke="#858A94" stroke-linecap="round" stroke-linejoin="round"/><path d="M3.83333 3.835C3.83304 3.73641 3.85898 3.63951 3.90851 3.55426C3.95803 3.46901 4.02935 3.39847 4.11514 3.34989C4.20094 3.30131 4.29811 3.27644 4.3967 3.27782C4.49528 3.27921 4.59172 3.30681 4.67611 3.35778L7.45222 5.02278C7.53487 5.07204 7.60331 5.14191 7.65083 5.22557C7.69836 5.30922 7.72335 5.40379 7.72335 5.5C7.72335 5.59621 7.69836 5.69078 7.65083 5.77443C7.60331 5.85809 7.53487 5.92796 7.45222 5.97722L4.67611 7.64222C4.59168 7.69322 4.49519 7.72082 4.39656 7.72218C4.29793 7.72354 4.20071 7.69862 4.1149 7.64997C4.02909 7.60133 3.95778 7.53071 3.90829 7.44538C3.85881 7.36005 3.83294 7.26308 3.83333 7.16444V3.835Z" stroke="#858A94" stroke-linecap="round" stroke-linejoin="round"/></g>
</svg>
