<svg width="16" height="16" viewBox="0 0 16 16" fill="none" xmlns="http://www.w3.org/2000/svg">
<path d="M8.53265 6.27778C8.71017 6.27778 8.85407 6.41458 8.85407 6.58333V7.83599H10.1071C10.2847 7.83599 10.4286 7.97279 10.4286 8.14155C10.4286 8.3103 10.2847 8.4471 10.1071 8.4471H8.85407V9.63889C8.85407 9.80764 8.71017 9.94444 8.53265 9.94444C8.35512 9.94444 8.21122 9.80764 8.21122 9.63889V8.4471H6.89286C6.71534 8.4471 6.57143 8.3103 6.57143 8.14155C6.57143 7.97279 6.71534 7.83599 6.89286 7.83599H8.21122V6.58333C8.21122 6.41458 8.35513 6.27778 8.53265 6.27778Z" fill="#1B1F24" fill-opacity="0.9"/>
<path fill-rule="evenodd" clip-rule="evenodd" d="M9.36447 2C9.61894 2.00002 9.86312 2.09575 10.0437 2.26617L12.715 4.7864C12.8974 4.9585 13 5.1932 13 5.4375V11.7778C13 12.4528 12.4244 13 11.7143 13H5.28571L5.15451 12.9934C4.50607 12.9309 4 12.4107 4 11.7778V3.22222C4.00001 2.58934 4.50608 2.06906 5.15451 2.00656L5.28571 2H9.36447ZM5.28571 2.61111C4.93068 2.61111 4.64287 2.88473 4.64286 3.22222V11.7778C4.64286 12.1153 4.93067 12.3889 5.28571 12.3889H11.7143C12.0471 12.3889 12.321 12.1485 12.354 11.8404L12.3571 11.7778V5.66667H10.4286C9.71849 5.66667 9.14286 5.11946 9.14286 4.44444V2.61111H5.28571ZM9.78571 4.44444C9.78571 4.78195 10.0735 5.05556 10.4286 5.05556H12.0878L9.78571 2.88325V4.44444Z" fill="#1B1F24" fill-opacity="0.9"/>
</svg>
