<svg width="16" height="16" viewBox="0 0 16 16" fill="none" xmlns="http://www.w3.org/2000/svg">
<path fill-rule="evenodd" clip-rule="evenodd" d="M5.55647 10.4437C5.48712 10.3744 5.43593 10.2891 5.40747 10.1953C5.37901 10.1015 5.37414 10.0021 5.3933 9.90598L5.69105 8.41732C5.7142 8.30201 5.77097 8.19613 5.85422 8.11304L10.7051 3.26181C10.7881 3.17881 10.8866 3.11297 10.995 3.06804C11.1034 3.02312 11.2196 3 11.337 3C11.4543 3 11.5705 3.02312 11.6789 3.06804C11.7873 3.11297 11.8858 3.17881 11.9688 3.26181L11.5478 3.6834C11.5201 3.65567 11.4873 3.63368 11.4511 3.61867C11.4149 3.60366 11.3761 3.59593 11.337 3.59593C11.2978 3.59593 11.259 3.60366 11.2228 3.61867C11.1867 3.63368 11.1538 3.65567 11.1262 3.6834L10.5057 4.30387L11.6966 5.4948L12.3172 4.87432C12.373 4.81849 12.4043 4.74278 12.4043 4.66383C12.4043 4.58488 12.373 4.50916 12.3172 4.45333L11.5478 3.6834L11.9688 3.26181L12.7388 4.03234C12.906 4.19981 13 4.42683 13 4.66353C13 4.90023 12.906 5.12725 12.7388 5.29472L7.88725 10.1459C7.80416 10.2292 7.69827 10.286 7.58295 10.3091L6.09421 10.6068C5.99807 10.626 5.89869 10.6211 5.80488 10.5927C5.71108 10.5642 5.62575 10.513 5.55647 10.4437ZM6.27524 8.53403L10.0846 4.72486L11.2756 5.91579L7.46623 9.72496L6.60991 9.89586L5.97749 10.0227L6.10373 9.39031L6.27524 8.53403ZM11.337 8.50426V11.8091C11.337 11.967 11.2742 12.1185 11.1625 12.2301C11.0509 12.3418 10.8994 12.4045 10.7415 12.4045H4.191C4.03306 12.4045 3.88159 12.3418 3.76991 12.2301C3.65824 12.1185 3.5955 11.967 3.5955 11.8091V5.25899C3.5955 5.10107 3.65824 4.94961 3.76991 4.83794C3.88159 4.72627 4.03306 4.66353 4.191 4.66353H7.49601C7.57497 4.66353 7.65071 4.63216 7.70655 4.57633C7.76239 4.52049 7.79376 4.44476 7.79376 4.3658C7.79376 4.28684 7.76239 4.21111 7.70655 4.15527C7.65071 4.09944 7.57497 4.06807 7.49601 4.06807H4.191C3.87512 4.06807 3.57219 4.19354 3.34883 4.41688C3.12548 4.64022 3 4.94314 3 5.25899V11.8091C3 12.1249 3.12548 12.4278 3.34883 12.6512C3.57219 12.8745 3.87512 13 4.191 13H10.7415C11.0573 13 11.3603 12.8745 11.5836 12.6512C11.807 12.4278 11.9325 12.1249 11.9325 11.8091V8.50426C11.9325 8.4253 11.9011 8.34957 11.8453 8.29373C11.7894 8.2379 11.7137 8.20653 11.6347 8.20653C11.5557 8.20653 11.48 8.2379 11.4242 8.29373C11.3683 8.34957 11.337 8.4253 11.337 8.50426Z" fill="black"/>
</svg>
