<svg width="69" height="12" viewBox="0 0 69 12" fill="none" xmlns="http://www.w3.org/2000/svg">
<g clip-path="url(#clip0_45_65)">
<path d="M0.950667 1.90464C0.684887 1.90464 0.46 1.81248 0.276 1.62816C0.092 1.44384 0 1.21856 0 0.95232C0 0.686078 0.092 0.4608 0.276 0.27648C0.46 0.09216 0.684887 0 0.950667 0C1.20622 0 1.42089 0.09216 1.59467 0.27648C1.77867 0.4608 1.87067 0.686078 1.87067 0.95232C1.87067 1.21856 1.77867 1.44384 1.59467 1.62816C1.42089 1.81248 1.20622 1.90464 0.950667 1.90464ZM1.62533 3.27168V11.689H0.23V3.27168H1.62533Z" fill="black"/>
<path d="M9.9221 4.11647C9.9221 5.00735 9.61543 5.74977 9.0021 6.34367C8.39897 6.92735 7.47389 7.21919 6.22676 7.21919H4.1721V11.689H2.77676V0.983032H6.22676C7.43297 0.983032 8.34789 1.27487 8.97143 1.85855C9.60522 2.44223 9.9221 3.19487 9.9221 4.11647ZM6.22676 6.06719C7.00364 6.06719 7.5761 5.89823 7.9441 5.56031C8.3121 5.22239 8.4961 4.74111 8.4961 4.11647C8.4961 2.79551 7.73964 2.13503 6.22676 2.13503H4.1721V6.06719H6.22676Z" fill="black"/>
<path d="M14.0944 11.8272C13.3072 11.8272 12.5917 11.648 11.9477 11.2896C11.3139 10.9312 10.813 10.4243 10.445 9.76894C10.0872 9.10333 9.90836 8.33533 9.90836 7.46494C9.90836 6.60478 10.0924 5.84701 10.4604 5.19166C10.8386 4.52606 11.3497 4.01918 11.9937 3.67102C12.6377 3.31262 13.3584 3.13342 14.1557 3.13342C14.953 3.13342 15.6737 3.31262 16.3177 3.67102C16.9617 4.01918 17.4677 4.52094 17.8357 5.1763C18.2139 5.83165 18.403 6.59456 18.403 7.46494C18.403 8.33533 18.2088 9.10333 17.8204 9.76894C17.4421 10.4243 16.9259 10.9312 16.2717 11.2896C15.6174 11.648 14.8917 11.8272 14.0944 11.8272ZM14.0944 10.5984C14.5952 10.5984 15.0654 10.4806 15.505 10.2451C15.9446 10.0096 16.2972 9.65629 16.563 9.18526C16.839 8.71424 16.977 8.14078 16.977 7.46494C16.977 6.7891 16.8441 6.21565 16.5784 5.74462C16.3126 5.2736 15.965 4.92541 15.5357 4.70014C15.1064 4.46462 14.6412 4.34686 14.1404 4.34686C13.6292 4.34686 13.159 4.46462 12.7297 4.70014C12.3106 4.92541 11.9732 5.2736 11.7177 5.74462C11.4621 6.21565 11.3344 6.7891 11.3344 7.46494C11.3344 8.15101 11.457 8.7296 11.7024 9.20062C11.9579 9.67165 12.2952 10.0249 12.7144 10.2605C13.1334 10.4857 13.5934 10.5984 14.0944 10.5984Z" fill="black"/>
<path d="M20.4063 0.322571V11.689H19.0109V0.322571H20.4063Z" fill="black"/>
<path d="M22.953 0.322571V11.689H21.5577V0.322571H22.953Z" fill="black"/>
<path d="M27.7691 11.8272C26.982 11.8272 26.2665 11.648 25.6225 11.2896C24.9887 10.9312 24.4878 10.4243 24.1198 9.76894C23.762 9.10333 23.5831 8.33533 23.5831 7.46494C23.5831 6.60478 23.7671 5.84701 24.1351 5.19166C24.5133 4.52606 25.0245 4.01918 25.6685 3.67102C26.3125 3.31262 27.0331 3.13342 27.8305 3.13342C28.6278 3.13342 29.3485 3.31262 29.9925 3.67102C30.6365 4.01918 31.1425 4.52094 31.5105 5.1763C31.8887 5.83165 32.0778 6.59456 32.0778 7.46494C32.0778 8.33533 31.8836 9.10333 31.4951 9.76894C31.1169 10.4243 30.6007 10.9312 29.9465 11.2896C29.2923 11.648 28.5665 11.8272 27.7691 11.8272ZM27.7691 10.5984C28.27 10.5984 28.7403 10.4806 29.1798 10.2451C29.6193 10.0096 29.972 9.65629 30.2378 9.18526C30.5138 8.71424 30.6518 8.14078 30.6518 7.46494C30.6518 6.7891 30.5189 6.21565 30.2531 5.74462C29.9873 5.2736 29.6398 4.92541 29.2105 4.70014C28.7811 4.46462 28.316 4.34686 27.8151 4.34686C27.304 4.34686 26.8338 4.46462 26.4045 4.70014C25.9853 4.92541 25.648 5.2736 25.3925 5.74462C25.1369 6.21565 25.0091 6.7891 25.0091 7.46494C25.0091 8.15101 25.1318 8.7296 25.3771 9.20062C25.6327 9.67165 25.97 10.0249 26.3891 10.2605C26.8083 10.4857 27.2683 10.5984 27.7691 10.5984Z" fill="black"/>
<path d="M48.979 0.983032L45.8817 11.689H44.3177L41.8337 3.07199L39.2577 11.689L37.709 11.7043L34.719 0.983032H36.2063L38.537 10.0608L41.113 0.983032H42.677L45.1303 10.0301L47.4763 0.983032H48.979Z" fill="black"/>
<path d="M52.9441 11.8272C52.1568 11.8272 51.4414 11.648 50.7974 11.2896C50.1635 10.9312 49.6628 10.4243 49.2948 9.76894C48.9368 9.10333 48.7581 8.33533 48.7581 7.46494C48.7581 6.60478 48.9421 5.84701 49.3101 5.19166C49.6881 4.52606 50.1994 4.01918 50.8434 3.67102C51.4874 3.31262 52.2081 3.13342 53.0054 3.13342C53.8028 3.13342 54.5234 3.31262 55.1674 3.67102C55.8114 4.01918 56.3174 4.52094 56.6854 5.1763C57.0635 5.83165 57.2528 6.59456 57.2528 7.46494C57.2528 8.33533 57.0582 9.10333 56.6701 9.76894C56.2915 10.4243 55.7755 10.9312 55.1214 11.2896C54.4669 11.648 53.7414 11.8272 52.9441 11.8272ZM52.9441 10.5984C53.4448 10.5984 53.9149 10.4806 54.3548 10.2451C54.7942 10.0096 55.1468 9.65629 55.4128 9.18526C55.6888 8.71424 55.8268 8.14078 55.8268 7.46494C55.8268 6.7891 55.6935 6.21565 55.4281 5.74462C55.1622 5.2736 54.8148 4.92541 54.3854 4.70014C53.9561 4.46462 53.4908 4.34686 52.9901 4.34686C52.4788 4.34686 52.0088 4.46462 51.5794 4.70014C51.1601 4.92541 50.8228 5.2736 50.5674 5.74462C50.3115 6.21565 50.1841 6.7891 50.1841 7.46494C50.1841 8.15101 50.3068 8.7296 50.5521 9.20062C50.8075 9.67165 51.1448 10.0249 51.5641 10.2605C51.9829 10.4857 52.4429 10.5984 52.9441 10.5984Z" fill="black"/>
<path d="M59.2557 4.63874C59.501 4.15746 59.8489 3.7837 60.2983 3.51746C60.7583 3.25122 61.3156 3.1181 61.9701 3.1181V4.56194H61.6021C60.0381 4.56194 59.2557 5.41188 59.2557 7.1117V11.689H57.8608V3.2717H59.2557V4.63874Z" fill="black"/>
<path d="M67.046 11.689L63.7493 7.97185V11.689H62.354V0.322571H63.7493V7.00417L66.9846 3.27169H68.932L64.976 7.46497L68.9473 11.689H67.046Z" fill="black"/>
</g>
<defs>
<clipPath id="clip0_45_65">
<rect width="69" height="12" fill="white"/>
</clipPath>
</defs>
</svg>
