<svg width="16" height="16" viewBox="0 0 16 16" fill="none" xmlns="http://www.w3.org/2000/svg">
<path fill-rule="evenodd" clip-rule="evenodd" d="M8 2C8.92047 2 9.66667 2.74619 9.66667 3.66667C9.66667 3.9811 9.57839 4.27651 9.42578 4.52799C9.38848 4.58947 9.36593 4.63302 9.35091 4.66667H11.3333C11.7015 4.66667 12 4.96514 12 5.33333V6.58724C12 6.80369 11.8948 7.00656 11.7181 7.13151C11.5413 7.25646 11.3147 7.28772 11.1107 7.21549C11.0201 7.18349 10.9274 7.16667 10.8333 7.16667C10.3731 7.16667 10 7.53977 10 8C10 8.46023 10.3731 8.83333 10.8333 8.83333C10.9259 8.83333 11.0185 8.81647 11.1107 8.78385C11.3147 8.7116 11.5413 8.7429 11.7181 8.86784C11.8948 8.99279 12 9.19566 12 9.41211V10.6667C12 11.0349 11.7015 11.3333 11.3333 11.3333H9.35091C9.36593 11.367 9.38848 11.4105 9.42578 11.472C9.57839 11.7235 9.66667 12.0189 9.66667 12.3333C9.66667 13.2538 8.92047 14 8 14C7.07953 14 6.33333 13.2538 6.33333 12.3333C6.33333 12.0189 6.42161 11.7235 6.57422 11.472C6.61152 11.4105 6.63407 11.367 6.64909 11.3333H4.66667C4.29848 11.3333 4 11.0349 4 10.6667V9.41211C4 9.19566 4.10516 8.99278 4.2819 8.86784C4.45868 8.7429 4.68526 8.7116 4.88932 8.78385C4.98149 8.81647 5.07408 8.83333 5.16667 8.83333L5.25195 8.82878C5.64406 8.7889 5.95557 8.47739 5.99544 8.08529L6 8C6 7.56858 5.67212 7.21396 5.25195 7.17122L5.16667 7.16667C5.07261 7.16667 4.97985 7.18349 4.88932 7.21549C4.68526 7.28771 4.45866 7.25646 4.2819 7.13151C4.10516 7.00656 4 6.80369 4 6.58724V5.33333C4 4.96514 4.29848 4.66667 4.66667 4.66667H6.64909C6.63407 4.63302 6.61152 4.58947 6.57422 4.52799C6.42161 4.27651 6.33333 3.9811 6.33333 3.66667C6.33333 2.74619 7.07953 2 8 2ZM8 2.66667C7.44772 2.66667 7 3.11438 7 3.66667C7 3.85551 7.05263 4.03193 7.14388 4.18229C7.24208 4.34413 7.33333 4.51839 7.33333 4.70768V5.33333H4.66667V6.58724C4.82322 6.53183 4.99113 6.5 5.16667 6.5C5.99509 6.50001 6.66667 7.17158 6.66667 8C6.66666 8.82842 5.99508 9.49999 5.16667 9.5C4.99106 9.5 4.82328 9.46756 4.66667 9.41211V10.6667H7.33333V11.2923C7.33333 11.4816 7.24208 11.6559 7.14388 11.8177C7.05263 11.9681 7 12.1445 7 12.3333C7 12.8856 7.44772 13.3333 8 13.3333C8.55228 13.3333 9 12.8856 9 12.3333C9 12.1445 8.94737 11.9681 8.85612 11.8177C8.75792 11.6559 8.66667 11.4816 8.66667 11.2923V10.6667H11.3333V9.41211C11.1767 9.46756 11.0089 9.5 10.8333 9.5C10.0049 9.5 9.33333 8.82843 9.33333 8C9.33333 7.17157 10.0049 6.5 10.8333 6.5C11.0089 6.5 11.1768 6.53183 11.3333 6.58724V5.33333H8.66667V4.70768C8.66667 4.51839 8.75792 4.34413 8.85612 4.18229C8.94737 4.03193 9 3.85551 9 3.66667C9 3.11438 8.55228 2.66667 8 2.66667Z" fill="#1B1F24" fill-opacity="0.9"/>
</svg>
