<svg width="16" height="16" viewBox="0 0 16 16" fill="none" xmlns="http://www.w3.org/2000/svg">
<path fill-rule="evenodd" clip-rule="evenodd" d="M10 7.00003C10 7.39399 9.92243 7.7841 9.77166 8.14808C9.6209 8.51205 9.39992 8.84277 9.12135 9.12135C8.84277 9.39992 8.51205 9.6209 8.14808 9.77166C7.7841 9.92243 7.39399 10 7.00003 10C6.60606 10 6.21595 9.92243 5.85198 9.77166C5.488 9.6209 5.15728 9.39992 4.87871 9.12135C4.60013 8.84277 4.37915 8.51205 4.22839 8.14808C4.07762 7.7841 4.00003 7.39399 4.00003 7.00003C4.00003 6.20438 4.3161 5.44131 4.87871 4.87871C5.44131 4.3161 6.20438 4.00003 7.00003 4.00003C7.79568 4.00003 8.55874 4.3161 9.12135 4.87871C9.68395 5.44131 10 6.20438 10 7.00003ZM9.36269 9.80403C8.63971 10.4132 7.70936 10.7196 6.76587 10.6592C5.82237 10.5988 4.93867 10.1764 4.29924 9.47998C3.6598 8.7836 3.31407 7.86714 3.33421 6.92194C3.35435 5.97673 3.7388 5.07583 4.40732 4.40732C5.07583 3.7388 5.97673 3.35435 6.92194 3.33421C7.86714 3.31407 8.7836 3.6598 9.47998 4.29924C10.1764 4.93867 10.5988 5.82237 10.6592 6.76587C10.7196 7.70936 10.4132 8.63971 9.80403 9.36269C9.84075 9.37921 9.87418 9.40225 9.90269 9.43069L11.9027 11.4307C11.9345 11.4614 11.9599 11.4982 11.9774 11.5389C11.9949 11.5796 12.0041 11.6233 12.0044 11.6676C12.0048 11.7118 11.9964 11.7557 11.9796 11.7967C11.9629 11.8376 11.9381 11.8749 11.9068 11.9062C11.8755 11.9375 11.8383 11.9622 11.7973 11.979C11.7564 11.9957 11.7125 12.0042 11.6682 12.0038C11.624 12.0034 11.5802 11.9942 11.5396 11.9767C11.4989 11.9593 11.4621 11.9339 11.4314 11.902L9.43136 9.90203C9.40275 9.87377 9.37948 9.84057 9.36269 9.80403Z" fill="black"/>
</svg>
