<svg width="692" height="150" viewBox="0 0 692 150" fill="none" xmlns="http://www.w3.org/2000/svg">
<rect width="692" height="150" rx="8" fill="#1E262B"/>
<path d="M33.168 64.872C34.704 67.032 35.856 68.928 36.672 70.536L34.584 71.976C33.72 70.248 32.52 68.328 31.008 66.216L33.168 64.872ZM34.44 75.456L36.72 76.368C35.736 79.92 34.632 83.28 33.432 86.4L31.056 85.344C32.352 82.128 33.48 78.816 34.44 75.456ZM41.16 75.36V77.856H45.36V75.36H41.16ZM41.16 80.136V82.896H45.36V80.136H41.16ZM41.16 85.224V86.52H38.712V73.44C38.136 74.28 37.536 75.096 36.912 75.888L36.096 73.296C38.064 70.56 39.456 67.536 40.272 64.272L42.648 64.752C42.336 65.904 41.952 67.032 41.52 68.136H45.72C45.336 66.96 44.928 65.832 44.448 64.752L46.872 64.08C47.376 65.568 47.784 66.912 48.096 68.136H52.464V70.488H47.784V73.056H51.96V75.36H47.784V77.856H52.008V80.136H47.784V82.896H52.968V85.224H41.16ZM45.36 70.488H41.16V73.056H45.36V70.488ZM72.24 75.672C69.504 75.096 67.104 74.28 65.016 73.272C62.976 74.256 60.72 75.048 58.224 75.672H72.24ZM67.416 71.904C69.864 72.84 72.744 73.512 76.008 73.944L74.928 76.152C74.208 76.032 73.488 75.912 72.816 75.792V86.496H70.44V85.656H59.448V86.496H57.072V75.936C56.352 76.08 55.656 76.2 54.936 76.344L53.856 74.136C57.168 73.704 60.096 72.96 62.64 71.928C61.488 71.208 60.48 70.392 59.592 69.528C58.584 70.416 57.552 71.208 56.472 71.88L54.864 69.936C57.312 68.544 59.472 66.576 61.32 64.008L63.792 64.56C63.504 64.992 63.24 65.376 62.976 65.76H72.264V67.656C70.896 69.288 69.288 70.704 67.416 71.904ZM61.08 68.064C62.184 69.12 63.504 70.056 64.992 70.824C66.528 69.984 67.872 69.024 69.072 67.944H61.2L61.08 68.064ZM59.448 83.544H63.744V81.6H59.448V83.544ZM66.096 83.544H70.44V81.6H66.096V83.544ZM59.448 79.632H63.744V77.736H59.448V79.632ZM66.096 77.736V79.632H70.44V77.736H66.096ZM80.592 64.08L83.04 64.32C82.776 65.856 82.512 67.272 82.272 68.592H86.208V69.96C86.064 73.704 85.344 76.944 84.072 79.704C85.344 80.712 86.4 81.6 87.216 82.416L85.512 84.384C84.768 83.616 83.88 82.8 82.872 81.936C81.72 83.76 80.304 85.32 78.576 86.664L76.848 84.528C78.48 83.328 79.848 81.936 80.904 80.304C79.824 79.416 78.648 78.504 77.376 77.568C78.072 75.552 78.696 73.368 79.272 71.016H77.064V68.592H79.8C80.088 67.128 80.352 65.616 80.592 64.08ZM82.056 78.192C82.992 76.08 83.568 73.68 83.76 71.016H81.768C81.24 73.32 80.688 75.24 80.112 76.8C80.808 77.28 81.456 77.736 82.056 78.192ZM86.688 74.088H91.8V71.448C92.952 70.392 94.08 69.144 95.184 67.704H87.36V65.256H98.064V67.704C96.96 69.288 95.712 70.8 94.32 72.216V74.088H98.904V76.536H94.32V83.424C94.32 85.296 93.6 86.232 92.208 86.232H88.608L87.96 83.856C88.92 83.88 90 83.904 91.176 83.904C91.584 83.904 91.8 83.496 91.8 82.68V76.536H86.688V74.088ZM102.144 71.256H109.464V70.224H100.368V68.112H109.464V66.96C107.184 67.056 104.808 67.152 102.312 67.248L101.904 65.256C108.12 65.088 113.664 64.776 118.512 64.296L119.256 66.312C117 66.504 114.552 66.672 111.96 66.816V68.112H121.104V70.224H111.96V71.256H119.304V79.608H111.96V80.736H120.264V82.704H111.96V83.88H121.464V86.016H100.056V83.88H109.464V82.704H101.256V80.736H109.464V79.608H102.144V71.256ZM116.88 77.64V76.344H111.96V77.64H116.88ZM109.464 77.64V76.344H104.568V77.64H109.464ZM104.568 74.472H109.464V73.224H104.568V74.472ZM111.96 73.224V74.472H116.88V73.224H111.96ZM143.088 64.44L144.312 66.696C142.272 67.368 140.016 67.776 137.544 67.92V71.64H144.816V74.016H142.608V86.52H140.136V74.016H137.544V76.296C137.424 80.544 136.488 83.928 134.736 86.472L132.936 84.576C134.28 82.584 135.024 79.824 135.12 76.296V65.88C138.096 65.832 140.736 65.352 143.088 64.44ZM123.048 66.12H127.2C126.912 65.52 126.6 64.968 126.264 64.464L128.856 64.032C129.144 64.656 129.408 65.352 129.696 66.12H134.064V68.424H123.048V66.12ZM122.808 71.568H125.256C124.968 70.776 124.632 70.032 124.248 69.36L126.456 68.52C126.816 69.384 127.152 70.392 127.488 71.568H129.6C129.96 70.584 130.272 69.576 130.536 68.52L132.768 69.312C132.48 70.128 132.192 70.872 131.88 71.568H134.208V73.848H129.864V75.792H133.8V78.072H129.864V84.36C129.864 85.848 129.024 86.592 127.368 86.592H126.12L125.568 84.288C125.928 84.384 126.264 84.456 126.552 84.456C127.08 84.456 127.368 84.216 127.368 83.76V78.072H123.192V75.792H127.368V73.848H122.808V71.568ZM124.536 79.008L126.792 79.488C126.24 81.936 125.472 84.048 124.464 85.848L122.376 84.528C123.408 82.8 124.128 80.952 124.536 79.008ZM132.312 78.864C132.888 80.352 133.368 81.72 133.704 82.968L131.592 83.784C131.232 82.296 130.776 80.832 130.248 79.416L132.312 78.864ZM149.472 71.16H163.776V73.512H157.968V76.872H164.784V79.224H157.968V83.448C159.6 83.688 161.592 83.808 163.944 83.832C165.144 83.832 166.368 83.76 167.64 83.64L167.136 86.112H165.048C159.912 86.112 156.264 85.656 154.056 84.744C152.568 84.048 151.32 83.016 150.336 81.672C149.424 83.568 148.32 85.152 147 86.448L145.392 84.432C147.624 82.128 149.136 79.032 149.904 75.144L152.328 75.576C152.04 76.944 151.704 78.216 151.272 79.416C152.376 81.216 153.768 82.368 155.448 82.896H155.472V73.512H149.472V71.16ZM166.752 66.48V72.048H164.304V68.784H148.896V72.168H146.448V66.48H155.4C155.064 65.76 154.728 65.088 154.344 64.488L157.032 64.056C157.368 64.776 157.68 65.592 157.992 66.48H166.752ZM178.176 64.248C179.568 65.952 180.816 67.824 181.896 69.84L179.592 70.992C178.464 68.88 177.216 66.984 175.824 65.304L178.176 64.248ZM185.568 65.448L188.064 66C187.008 71.472 184.896 75.936 181.68 79.416C184.2 81.384 187.128 82.92 190.488 84.072L188.904 86.4C185.448 85.128 182.4 83.424 179.784 81.264C177.12 83.544 173.904 85.296 170.112 86.544L168.672 84.24C172.224 83.112 175.248 81.504 177.744 79.44C174.768 76.536 172.392 72.984 170.616 68.808L172.92 67.512C174.504 71.544 176.736 74.928 179.616 77.664C182.616 74.472 184.608 70.392 185.568 65.448ZM194.016 74.112C193.368 74.88 192.696 75.648 191.976 76.392L191.136 73.704C193.608 70.992 195.432 67.8 196.632 64.128L198.96 65.232C198.336 67.104 197.52 68.88 196.512 70.56V86.496H194.016V74.112ZM210.456 73.848C211.584 76.632 212.568 79.632 213.384 82.8L211.176 83.784C210.312 80.328 209.328 77.256 208.248 74.592L210.456 73.848ZM201.888 69.36C201.168 71.112 200.352 72.72 199.44 74.16L197.28 72.816C199.056 70.152 200.304 67.32 201.024 64.32L203.376 64.824C203.184 65.544 202.968 66.264 202.752 66.96H212.76V68.592C212.4 70.032 211.944 71.448 211.392 72.864L208.992 72.168C209.472 71.352 209.856 70.416 210.192 69.36H201.888ZM204.552 86.328H201.504L200.952 83.976C201.912 84.072 202.848 84.144 203.712 84.144C204.288 84.144 204.576 83.832 204.576 83.232V71.016H207V83.832C207 85.488 206.184 86.328 204.552 86.328ZM200.64 74.112L202.896 74.736C202.056 78.024 200.976 80.904 199.68 83.376L197.328 82.536C198.576 80.328 199.68 77.52 200.64 74.112ZM223.368 68.184V85.008H220.968V83.808H217.416V85.704H215.016V68.184H217.32C217.752 66.912 218.064 65.592 218.256 64.224L220.776 64.56C220.512 65.856 220.152 67.08 219.72 68.184H223.368ZM217.416 81.504H220.968V76.968H217.416V81.504ZM217.416 74.736H220.968V70.536H217.416V74.736ZM227.736 74.016C229.272 75.96 230.448 77.664 231.288 79.152L229.272 80.544C228.384 78.96 227.184 77.208 225.696 75.288L227.736 74.016ZM235.728 68.184C235.728 76.584 235.608 81.768 235.368 83.736C235.128 85.416 233.976 86.256 231.912 86.256C231.432 86.256 230.568 86.208 229.32 86.112L228.72 83.832C229.776 83.904 230.712 83.952 231.504 83.952C232.368 83.952 232.872 83.472 233.016 82.536C233.16 81.384 233.232 77.424 233.28 70.632H227.472C226.824 72.072 226.056 73.368 225.168 74.52L223.656 72.528C225.24 70.272 226.296 67.488 226.872 64.2L229.344 64.512C229.104 65.808 228.792 67.032 228.432 68.184H235.728ZM247.032 68.304H239.064V65.904H257.568V68.304H249.576V82.656H259.032V85.08H237.552V82.656H247.032V68.304ZM271.152 69.864C270.048 72.168 268.824 74.136 267.48 75.768L265.68 73.608C267.6 71.352 269.28 68.184 270.72 64.056L273.264 64.632C272.928 65.592 272.592 66.504 272.256 67.392H281.928V69.864H274.392V73.056H281.016V75.504H274.392V78.792H281.016V81.216H274.392V86.568H271.848V69.864H271.152ZM262.752 74.016C262.104 74.784 261.432 75.528 260.712 76.248L259.872 73.56C262.296 70.896 264.096 67.752 265.272 64.152L267.648 65.256C267.048 67.056 266.256 68.784 265.296 70.416V86.568H262.752V74.016ZM283.44 67.584H293.448C293.016 66.696 292.512 65.856 291.912 65.04L294.288 64.152C294.912 65.112 295.512 66.264 296.04 67.584H304.896V70.008H292.464C292.416 70.92 292.368 72.096 292.272 73.56H302.16C302.064 78.888 301.824 82.224 301.44 83.52C300.888 85.392 299.664 86.328 297.792 86.376C297 86.376 296.088 86.328 295.032 86.256L294.288 83.976C295.56 84.048 296.64 84.096 297.528 84.096C298.464 84.048 299.064 83.352 299.352 82.008C299.496 81.264 299.568 79.248 299.616 75.936H291.984C291.648 77.76 291.072 79.416 290.232 80.928C289.056 83.016 287.4 84.936 285.264 86.664L283.44 84.888C285.984 82.776 287.664 80.808 288.48 79.008C289.272 77.208 289.728 75.168 289.848 72.912C289.896 71.712 289.944 70.752 289.968 70.008H283.44V67.584ZM306.528 68.304H317.928C317.856 67.008 317.832 65.688 317.832 64.32H320.424C320.424 65.712 320.448 67.056 320.52 68.304H323.952C323.352 67.224 322.704 66.24 322.032 65.376L324.096 64.368C324.816 65.328 325.488 66.384 326.16 67.536L324.624 68.304H327.624V70.752H320.664C320.928 74.256 321.456 77.232 322.224 79.632C323.232 82.32 324.024 83.664 324.648 83.664C324.984 83.664 325.344 82.392 325.752 79.896L328.008 81.048C327.288 84.672 326.232 86.496 324.816 86.496C322.44 86.352 320.544 83.592 319.104 78.264C318.6 76.104 318.264 73.584 318.072 70.752H306.528V68.304ZM306.864 74.04H317.232V76.392H313.296V81.648C314.928 81.312 316.56 80.928 318.168 80.496V82.944C314.64 83.784 310.872 84.504 306.864 85.104L306.288 82.728C307.8 82.56 309.312 82.344 310.8 82.104V76.392H306.864V74.04ZM339.072 72.24C341.328 70.944 343.488 69.504 345.552 67.872H330.408V65.448H349.032V67.872C346.824 69.84 344.352 71.736 341.592 73.512V83.664C341.592 85.44 340.704 86.328 338.976 86.328C337.512 86.328 336.24 86.256 335.16 86.16L334.488 83.736C335.664 83.88 336.936 83.976 338.304 83.976C338.808 83.976 339.072 83.712 339.072 83.184V72.24ZM359.568 66.048V83.712H357.24V82.632H354.864V84.216H352.512V66.048H359.568ZM354.864 80.28H357.24V68.352H354.864V80.28ZM362.688 68.712L365.136 68.832L363.984 74.52H368.256L369.36 67.464H360.912V65.064H372.192L370.776 74.52H373.368C373.368 80.52 372.984 83.976 372.24 84.888C371.472 85.8 369.864 86.28 367.416 86.28C366.744 86.28 366.072 86.232 365.376 86.16L364.584 83.544C365.64 83.712 366.36 83.808 366.792 83.808C368.76 83.808 369.936 83.472 370.32 82.8C370.704 82.128 370.92 80.16 370.92 76.896H361.272L362.688 68.712ZM360.144 79.128H369.624V81.48H360.144V79.128ZM380.064 66.528C381.624 66.528 382.896 66.936 383.856 67.8C384.816 68.64 385.296 69.792 385.296 71.256C385.296 72.456 384.984 73.44 384.408 74.208C384.192 74.448 383.496 75.096 382.344 76.104C381.912 76.464 381.6 76.872 381.384 77.304C381.144 77.784 381.024 78.288 381.024 78.864V79.2H378.264V78.864C378.264 77.952 378.408 77.16 378.744 76.512C379.056 75.864 379.992 74.856 381.552 73.464L381.84 73.128C382.272 72.6 382.488 72.024 382.488 71.424C382.488 70.632 382.248 70.008 381.816 69.552C381.36 69.096 380.712 68.88 379.896 68.88C378.84 68.88 378.096 69.192 377.64 69.864C377.232 70.416 377.04 71.208 377.04 72.216H374.304C374.304 70.44 374.808 69.048 375.864 68.04C376.896 67.032 378.288 66.528 380.064 66.528ZM379.632 80.376C380.16 80.376 380.616 80.544 380.976 80.88C381.312 81.216 381.504 81.648 381.504 82.176C381.504 82.704 381.312 83.16 380.952 83.496C380.592 83.832 380.16 84 379.632 84C379.104 84 378.672 83.808 378.312 83.472C377.952 83.136 377.784 82.704 377.784 82.176C377.784 81.648 377.952 81.216 378.312 80.88C378.672 80.544 379.104 80.376 379.632 80.376Z" fill="white"/>
<path d="M541 75C541 63.402 550.402 54 562 54H641C652.598 54 662 63.402 662 75V75C662 86.598 652.598 96 641 96H562C550.402 96 541 86.598 541 75V75Z" fill="white"/>
<path d="M566.748 73.192C567.972 72.496 569.124 71.68 570.228 70.744H562.332V69.904H571.404V70.744C570.288 71.752 569.028 72.712 567.624 73.624V78.988C567.624 79.732 567.24 80.104 566.496 80.104C565.776 80.104 565.14 80.08 564.6 80.056L564.36 79.216C564.948 79.264 565.584 79.288 566.256 79.288C566.58 79.288 566.748 79.132 566.748 78.832V73.192ZM580.128 75.64C579.912 76.06 579.672 76.42 579.384 76.732L578.88 76.12C579.408 75.544 579.756 74.788 579.936 73.828L580.656 73.96C580.584 74.284 580.512 74.584 580.44 74.86H581.544V73.744H582.384V74.86H584.172V75.64H582.384V77.104H584.424V77.884H582.384V80.236H581.544V77.884H578.928V77.104H581.544V75.64H580.128ZM580.62 70.684H579.024V69.916H584.028C584.028 71.548 583.92 72.52 583.704 72.844C583.488 73.156 583.128 73.324 582.612 73.324C582.324 73.324 581.988 73.3 581.604 73.276L581.4 72.556C581.808 72.58 582.156 72.604 582.432 72.616C582.768 72.604 582.972 72.496 583.056 72.292C583.128 72.088 583.176 71.548 583.2 70.684H581.436C581.316 71.236 581.136 71.728 580.908 72.148C580.596 72.652 580.128 73.12 579.516 73.528L579.012 72.868C579.552 72.556 579.96 72.172 580.224 71.74C580.404 71.428 580.536 71.08 580.62 70.684ZM574.956 75.016V76.312C574.956 76.408 574.944 76.492 574.944 76.588H576.048V75.016H574.956ZM574.908 77.32C574.8 78.508 574.524 79.504 574.092 80.296L573.504 79.756C573.96 78.868 574.2 77.728 574.212 76.36V72.676C574.164 72.724 574.128 72.76 574.092 72.808L573.564 72.172C574.284 71.404 574.872 70.396 575.34 69.148L576.12 69.328C576.024 69.592 575.916 69.856 575.82 70.096H577.956V70.696C577.692 71.224 577.416 71.68 577.152 72.052H578.592V79.252C578.592 79.816 578.292 80.104 577.716 80.104H577.032L576.828 79.384C577.056 79.408 577.272 79.432 577.464 79.432C577.728 79.432 577.86 79.276 577.86 78.988V77.32H576.744V80.032H576.048V77.32H574.908ZM576.276 72.052C576.528 71.692 576.78 71.272 577.044 70.804H575.484C575.244 71.26 574.98 71.668 574.716 72.052H576.276ZM577.86 76.588V75.016H576.744V76.588H577.86ZM577.86 74.296V72.796H576.744V74.296H577.86ZM576.048 72.796H574.956V74.296H576.048V72.796ZM590.484 71.356C590.276 71.356 590.1 71.284 589.956 71.14C589.812 70.996 589.74 70.82 589.74 70.612C589.74 70.404 589.812 70.228 589.956 70.084C590.1 69.94 590.276 69.868 590.484 69.868C590.684 69.868 590.852 69.94 590.988 70.084C591.132 70.228 591.204 70.404 591.204 70.612C591.204 70.82 591.132 70.996 590.988 71.14C590.852 71.284 590.684 71.356 590.484 71.356ZM591.012 72.424V79H589.92V72.424H591.012ZM597.465 73.084C597.465 73.78 597.225 74.36 596.745 74.824C596.273 75.28 595.549 75.508 594.573 75.508H592.965V79H591.873V70.636H594.573C595.517 70.636 596.233 70.864 596.721 71.32C597.217 71.776 597.465 72.364 597.465 73.084ZM594.573 74.608C595.181 74.608 595.629 74.476 595.917 74.212C596.205 73.948 596.349 73.572 596.349 73.084C596.349 72.052 595.757 71.536 594.573 71.536H592.965V74.608H594.573ZM600.69 79.108C600.074 79.108 599.514 78.968 599.01 78.688C598.514 78.408 598.122 78.012 597.834 77.5C597.554 76.98 597.414 76.38 597.414 75.7C597.414 75.028 597.558 74.436 597.846 73.924C598.142 73.404 598.542 73.008 599.046 72.736C599.55 72.456 600.114 72.316 600.738 72.316C601.362 72.316 601.926 72.456 602.43 72.736C602.934 73.008 603.33 73.4 603.618 73.912C603.914 74.424 604.062 75.02 604.062 75.7C604.062 76.38 603.91 76.98 603.606 77.5C603.31 78.012 602.906 78.408 602.394 78.688C601.882 78.968 601.314 79.108 600.69 79.108ZM600.69 78.148C601.082 78.148 601.45 78.056 601.794 77.872C602.138 77.688 602.414 77.412 602.622 77.044C602.838 76.676 602.946 76.228 602.946 75.7C602.946 75.172 602.842 74.724 602.634 74.356C602.426 73.988 602.154 73.716 601.818 73.54C601.482 73.356 601.118 73.264 600.726 73.264C600.326 73.264 599.958 73.356 599.622 73.54C599.294 73.716 599.03 73.988 598.83 74.356C598.63 74.724 598.53 75.172 598.53 75.7C598.53 76.236 598.626 76.688 598.818 77.056C599.018 77.424 599.282 77.7 599.61 77.884C599.938 78.06 600.298 78.148 600.69 78.148ZM605.59 70.12V79H604.498V70.12H605.59ZM607.543 70.12V79H606.451V70.12H607.543ZM611.272 79.108C610.656 79.108 610.096 78.968 609.592 78.688C609.096 78.408 608.704 78.012 608.416 77.5C608.136 76.98 607.996 76.38 607.996 75.7C607.996 75.028 608.14 74.436 608.428 73.924C608.724 73.404 609.124 73.008 609.628 72.736C610.132 72.456 610.696 72.316 611.32 72.316C611.944 72.316 612.508 72.456 613.012 72.736C613.516 73.008 613.912 73.4 614.2 73.912C614.496 74.424 614.644 75.02 614.644 75.7C614.644 76.38 614.492 76.98 614.188 77.5C613.892 78.012 613.488 78.408 612.976 78.688C612.464 78.968 611.896 79.108 611.272 79.108ZM611.272 78.148C611.664 78.148 612.032 78.056 612.376 77.872C612.72 77.688 612.996 77.412 613.204 77.044C613.42 76.676 613.528 76.228 613.528 75.7C613.528 75.172 613.424 74.724 613.216 74.356C613.008 73.988 612.736 73.716 612.4 73.54C612.064 73.356 611.7 73.264 611.308 73.264C610.908 73.264 610.54 73.356 610.204 73.54C609.876 73.716 609.612 73.988 609.412 74.356C609.212 74.724 609.112 75.172 609.112 75.7C609.112 76.236 609.208 76.688 609.4 77.056C609.6 77.424 609.864 77.7 610.192 77.884C610.52 78.06 610.88 78.148 611.272 78.148Z" fill="#1E262B"/>
<path d="M633 72L636 75L633 78M636 75H630M640.5 75C640.5 79.1421 637.142 82.5 633 82.5C628.858 82.5 625.5 79.1421 625.5 75C625.5 70.8579 628.858 67.5 633 67.5C637.142 67.5 640.5 70.8579 640.5 75Z" stroke="black" stroke-linecap="round" stroke-linejoin="round"/>
</svg>
