<svg width="322" height="100" viewBox="0 0 322 100" fill="none" xmlns="http://www.w3.org/2000/svg">
<g clip-path="url(#clip0_23_185)">
<path d="M50.5238 0H44.0986C40.5764 0 37.7211 2.83721 37.7211 6.33708V14.6591C37.7211 18.159 40.5764 20.9962 44.0986 20.9962H50.5238C54.0461 20.9962 56.9014 18.159 56.9014 14.6591V6.33708C56.9014 2.83721 54.0461 0 50.5238 0Z" fill="black"/>
<path d="M94.3092 30.3699L88.0473 19.5895C87.0944 17.9494 84.9844 17.3881 83.3339 18.3349L47.2568 39.0335L11.3022 18.4093C9.65161 17.4625 7.54164 18.0238 6.58875 19.6639L0.463024 30.2009C-0.489866 31.8409 0.0750618 33.9375 1.7256 34.8844L39.4635 56.5332C41.114 57.48 43.224 56.9187 44.1769 55.2786L47.335 49.8444L50.5919 55.4477C51.5448 57.0878 53.6548 57.6491 55.3053 56.7023L93.0432 35.0534C94.6937 34.1066 95.2586 32.01 94.3057 30.3699H94.3092Z" fill="black"/>
<path d="M92.7743 64.9736L49.6288 40.2205C49.0162 39.8688 48.3424 39.7268 47.6856 39.7673C46.9028 39.6186 46.0623 39.7369 45.317 40.163L1.91618 65.0649C0.26564 66.0118 -0.299288 68.1083 0.653603 69.7484L6.77933 80.2922C7.73222 81.9322 9.8422 82.4936 11.4927 81.5467L37.8061 66.4514V96.5711C37.8061 98.4648 39.3512 100 41.257 100H53.5118C55.4176 100 56.9627 98.4648 56.9627 96.5711V66.4953L83.1535 81.5197C84.8041 82.4665 86.9141 81.9052 87.867 80.2651L94.0301 69.6571C94.983 68.017 94.4181 65.9205 92.7675 64.9736H92.7743Z" fill="black"/>
<path d="M296.321 86.8867C291.672 86.8867 287.471 85.8401 283.716 83.7468C279.962 81.5936 277.012 78.6032 274.867 74.7754C272.721 70.8878 271.649 66.4022 271.649 61.3184C271.649 56.2945 272.751 51.8387 274.956 47.9511C277.161 44.0635 280.171 41.0731 283.985 38.9798C287.799 36.8865 292.06 35.8398 296.768 35.8398C301.476 35.8398 305.737 36.8865 309.551 38.9798C313.365 41.0731 316.374 44.0635 318.579 47.9511C320.784 51.8387 321.887 56.2945 321.887 61.3184C321.887 66.3424 320.754 70.7981 318.49 74.6857C316.225 78.5733 313.126 81.5936 309.193 83.7468C305.319 85.8401 301.029 86.8867 296.321 86.8867ZM296.321 78.0051C298.943 78.0051 301.386 77.3771 303.651 76.1211C305.975 74.8651 307.852 72.9812 309.282 70.4692C310.713 67.9572 311.428 64.9069 311.428 61.3184C311.428 57.7299 310.742 54.7095 309.372 52.2574C308.001 49.7454 306.184 47.8614 303.919 46.6054C301.654 45.3494 299.211 44.7214 296.589 44.7214C293.967 44.7214 291.523 45.3494 289.259 46.6054C287.054 47.8614 285.296 49.7454 283.985 52.2574C282.674 54.7095 282.018 57.7299 282.018 61.3184C282.018 66.6414 283.359 70.7682 286.041 73.6989C288.782 76.5697 292.209 78.0051 296.321 78.0051Z" fill="black"/>
<path d="M268.728 19.6914V86.0793H258.537V19.6914H268.728Z" fill="black"/>
<path d="M252.309 19.6914V86.0793H242.119V19.6914H252.309Z" fill="black"/>
<path d="M213.63 86.8867C208.982 86.8867 204.78 85.8401 201.026 83.7468C197.271 81.5936 194.321 78.6032 192.176 74.7754C190.03 70.8878 188.958 66.4022 188.958 61.3184C188.958 56.2945 190.06 51.8387 192.265 47.9511C194.47 44.0635 197.48 41.0731 201.294 38.9798C205.108 36.8865 209.369 35.8398 214.077 35.8398C218.785 35.8398 223.046 36.8865 226.86 38.9798C230.674 41.0731 233.683 44.0635 235.888 47.9511C238.093 51.8387 239.196 56.2945 239.196 61.3184C239.196 66.3424 238.064 70.7981 235.799 74.6857C233.534 78.5733 230.436 81.5936 226.502 83.7468C222.629 85.8401 218.338 86.8867 213.63 86.8867ZM213.63 78.0051C216.252 78.0051 218.695 77.3771 220.96 76.1211C223.284 74.8651 225.161 72.9812 226.592 70.4692C228.022 67.9572 228.737 64.9069 228.737 61.3184C228.737 57.7299 228.052 54.7095 226.681 52.2574C225.31 49.7454 223.493 47.8614 221.228 46.6054C218.964 45.3494 216.52 44.7214 213.898 44.7214C211.276 44.7214 208.833 45.3494 206.568 46.6054C204.363 47.8614 202.605 49.7454 201.294 52.2574C199.983 54.7095 199.327 57.7299 199.327 61.3184C199.327 66.6414 200.668 70.7682 203.35 73.6989C206.091 76.5697 209.518 78.0051 213.63 78.0051Z" fill="black"/>
<path d="M189.697 42.2992C189.697 45.469 188.952 48.4595 187.463 51.2705C185.973 54.0815 183.589 56.3842 180.311 58.1784C177.034 59.9129 172.832 60.7801 167.707 60.7801H156.444V86.0793H146.253V23.7285H167.707C172.475 23.7285 176.497 24.5658 179.775 26.2405C183.112 27.8553 185.585 30.0682 187.194 32.8793C188.863 35.6903 189.697 38.8303 189.697 42.2992ZM167.707 52.4368C171.581 52.4368 174.471 51.5696 176.378 49.8351C178.285 48.0408 179.239 45.5289 179.239 42.2992C179.239 35.481 175.395 32.0718 167.707 32.0718H156.444V52.4368H167.707Z" fill="black"/>
<path d="M135.019 30.0982C133.172 30.0982 131.622 29.4702 130.371 28.2142C129.119 26.9582 128.493 25.4032 128.493 23.5491C128.493 21.695 129.119 20.14 130.371 18.884C131.622 17.628 133.172 17 135.019 17C136.807 17 138.326 17.628 139.578 18.884C140.829 20.14 141.455 21.695 141.455 23.5491C141.455 25.4032 140.829 26.9582 139.578 28.2142C138.326 29.4702 136.807 30.0982 135.019 30.0982ZM140.025 36.6472V86.0793H129.834V36.6472H140.025Z" fill="black"/>
</g>
<defs>
<clipPath id="clip0_23_185">
<rect width="322" height="100" fill="white"/>
</clipPath>
</defs>
</svg>
