<svg width="144" height="25" viewBox="0 0 144 25" fill="none" xmlns="http://www.w3.org/2000/svg">
<path d="M1.984 3.968C1.42933 3.968 0.96 3.776 0.576 3.392C0.192 3.008 0 2.53867 0 1.984C0 1.42933 0.192 0.96 0.576 0.576C0.96 0.192 1.42933 0 1.984 0C2.51733 0 2.96533 0.192 3.328 0.576C3.712 0.96 3.904 1.42933 3.904 1.984C3.904 2.53867 3.712 3.008 3.328 3.392C2.96533 3.776 2.51733 3.968 1.984 3.968ZM3.392 6.816V24.352H0.48V6.816H3.392Z" fill="black"/>
<path d="M20.707 8.576C20.707 10.432 20.067 11.9787 18.787 13.216C17.5283 14.432 15.5977 15.04 12.995 15.04H8.707V24.352H5.795V2.048H12.995C15.5123 2.048 17.4217 2.656 18.723 3.872C20.0457 5.088 20.707 6.656 20.707 8.576ZM12.995 12.64C14.6163 12.64 15.811 12.288 16.579 11.584C17.347 10.88 17.731 9.87733 17.731 8.576C17.731 5.824 16.1523 4.448 12.995 4.448H8.707V12.64H12.995Z" fill="black"/>
<path d="M29.4143 24.64C27.7716 24.64 26.2783 24.2667 24.9343 23.52C23.6116 22.7733 22.5663 21.7173 21.7983 20.352C21.0516 18.9653 20.6783 17.3653 20.6783 15.552C20.6783 13.76 21.0623 12.1813 21.8303 10.816C22.6196 9.42933 23.6863 8.37333 25.0303 7.648C26.3743 6.90133 27.8783 6.528 29.5423 6.528C31.2063 6.528 32.7103 6.90133 34.0543 7.648C35.3983 8.37333 36.4543 9.41867 37.2223 10.784C38.0116 12.1493 38.4062 13.7387 38.4062 15.552C38.4062 17.3653 38.0009 18.9653 37.1903 20.352C36.4009 21.7173 35.3236 22.7733 33.9583 23.52C32.5929 24.2667 31.0783 24.64 29.4143 24.64ZM29.4143 22.08C30.4596 22.08 31.4409 21.8347 32.3583 21.344C33.2756 20.8533 34.0116 20.1173 34.5663 19.136C35.1423 18.1547 35.4303 16.96 35.4303 15.552C35.4303 14.144 35.1529 12.9493 34.5983 11.968C34.0436 10.9867 33.3183 10.2613 32.4223 9.792C31.5263 9.30133 30.5556 9.056 29.5103 9.056C28.4436 9.056 27.4623 9.30133 26.5663 9.792C25.6916 10.2613 24.9876 10.9867 24.4543 11.968C23.9209 12.9493 23.6543 14.144 23.6543 15.552C23.6543 16.9813 23.9103 18.1867 24.4223 19.168C24.9556 20.1493 25.6596 20.8853 26.5343 21.376C27.4089 21.8453 28.3689 22.08 29.4143 22.08Z" fill="black"/>
<path d="M42.587 0.672001V24.352H39.675V0.672001H42.587Z" fill="black"/>
<path d="M47.902 0.672001V24.352H44.99V0.672001H47.902Z" fill="black"/>
<path d="M57.953 24.64C56.3103 24.64 54.817 24.2667 53.473 23.52C52.1503 22.7733 51.105 21.7173 50.337 20.352C49.5903 18.9653 49.217 17.3653 49.217 15.552C49.217 13.76 49.601 12.1813 50.369 10.816C51.1583 9.42933 52.225 8.37333 53.569 7.648C54.913 6.90133 56.417 6.528 58.081 6.528C59.745 6.528 61.249 6.90133 62.593 7.648C63.937 8.37333 64.993 9.41867 65.761 10.784C66.5503 12.1493 66.945 13.7387 66.945 15.552C66.945 17.3653 66.5397 18.9653 65.729 20.352C64.9397 21.7173 63.8623 22.7733 62.497 23.52C61.1317 24.2667 59.617 24.64 57.953 24.64ZM57.953 22.08C58.9983 22.08 59.9797 21.8347 60.897 21.344C61.8143 20.8533 62.5503 20.1173 63.105 19.136C63.681 18.1547 63.969 16.96 63.969 15.552C63.969 14.144 63.6917 12.9493 63.137 11.968C62.5823 10.9867 61.857 10.2613 60.961 9.792C60.065 9.30133 59.0943 9.056 58.049 9.056C56.9823 9.056 56.001 9.30133 55.105 9.792C54.2303 10.2613 53.5263 10.9867 52.993 11.968C52.4597 12.9493 52.193 14.144 52.193 15.552C52.193 16.9813 52.449 18.1867 52.961 19.168C53.4943 20.1493 54.1983 20.8853 55.073 21.376C55.9477 21.8453 56.9077 22.08 57.953 22.08Z" fill="black"/>
<path d="M102.217 2.048L95.753 24.352H92.489L87.305 6.4L81.929 24.352L78.697 24.384L72.457 2.048H75.561L80.425 20.96L85.801 2.048H89.065L94.185 20.896L99.081 2.048H102.217Z" fill="black"/>
<path d="M110.492 24.64C108.849 24.64 107.356 24.2667 106.012 23.52C104.689 22.7733 103.644 21.7173 102.876 20.352C102.129 18.9653 101.756 17.3653 101.756 15.552C101.756 13.76 102.14 12.1813 102.908 10.816C103.697 9.42933 104.764 8.37333 106.108 7.648C107.452 6.90133 108.956 6.528 110.62 6.528C112.284 6.528 113.788 6.90133 115.132 7.648C116.476 8.37333 117.532 9.41867 118.3 10.784C119.089 12.1493 119.484 13.7387 119.484 15.552C119.484 17.3653 119.078 18.9653 118.268 20.352C117.478 21.7173 116.401 22.7733 115.036 23.52C113.67 24.2667 112.156 24.64 110.492 24.64ZM110.492 22.08C111.537 22.08 112.518 21.8347 113.436 21.344C114.353 20.8533 115.089 20.1173 115.644 19.136C116.22 18.1547 116.508 16.96 116.508 15.552C116.508 14.144 116.23 12.9493 115.676 11.968C115.121 10.9867 114.396 10.2613 113.5 9.792C112.604 9.30133 111.633 9.056 110.588 9.056C109.521 9.056 108.54 9.30133 107.644 9.792C106.769 10.2613 106.065 10.9867 105.532 11.968C104.998 12.9493 104.732 14.144 104.732 15.552C104.732 16.9813 104.988 18.1867 105.5 19.168C106.033 20.1493 106.737 20.8853 107.612 21.376C108.486 21.8453 109.446 22.08 110.492 22.08Z" fill="black"/>
<path d="M123.664 9.664C124.176 8.66133 124.902 7.88267 125.84 7.328C126.8 6.77333 127.963 6.496 129.329 6.496V9.504H128.561C125.297 9.504 123.664 11.2747 123.664 14.816V24.352H120.753V6.816H123.664V9.664Z" fill="black"/>
<path d="M139.922 24.352L133.042 16.608V24.352H130.13V0.672001H133.042V14.592L139.794 6.816H143.858L135.602 15.552L143.89 24.352H139.922Z" fill="black"/>
</svg>
