<svg width="100" height="106" viewBox="0 0 100 106" fill="none" xmlns="http://www.w3.org/2000/svg">
<path d="M53.3127 0H46.5329C42.8162 0 39.8032 3.00744 39.8032 6.7173V15.5387C39.8032 19.2485 42.8162 22.256 46.5329 22.256H53.3127C57.0294 22.256 60.0423 19.2485 60.0423 15.5387V6.7173C60.0423 3.00744 57.0294 0 53.3127 0Z" fill="black"/>
<path d="M99.515 32.1921L92.9075 20.7648C91.902 19.0264 89.6756 18.4314 87.9339 19.435L49.8653 41.3756L11.926 19.5139C10.1844 18.5102 7.95794 19.1052 6.95245 20.8437L0.488583 32.0129C-0.516907 33.7514 0.0792051 35.9738 1.82086 36.9774L41.6419 59.9252C43.3835 60.9289 45.61 60.3338 46.6154 58.5954L49.9479 52.8351L53.3846 58.7746C54.39 60.5131 56.6165 61.1081 58.3581 60.1044L98.1791 37.1566C99.9208 36.153 100.517 33.9306 99.5114 32.1921H99.515Z" fill="black"/>
<path d="M97.8954 68.872L52.3683 42.6337C51.7219 42.2609 51.0109 42.1104 50.3178 42.1534C49.4919 41.9957 48.6049 42.1211 47.8184 42.5728L2.02196 68.9688C0.280303 69.9725 -0.315809 72.1948 0.689681 73.9333L7.15355 85.1097C8.15904 86.8482 10.3855 87.4432 12.1271 86.4395L39.893 70.4385V102.365C39.893 104.373 41.5234 106 43.5343 106H56.4657C58.4766 106 60.107 104.373 60.107 102.365V70.4851L87.7436 86.4109C89.4852 87.4145 91.7117 86.8195 92.7172 85.081L99.2205 73.8365C100.226 72.0981 99.6299 69.8757 97.8883 68.872H97.8954Z" fill="black"/>
</svg>
