<svg width="16" height="12" viewBox="0 0 16 12" fill="none" xmlns="http://www.w3.org/2000/svg">
<path d="M14 0C14.5304 0 15.039 0.210865 15.4141 0.585938C15.7891 0.96101 16 1.46957 16 2V10C16 10.5304 15.7891 11.039 15.4141 11.4141C15.039 11.7891 14.5304 12 14 12H2C1.46957 12 0.96101 11.7891 0.585938 11.4141C0.210865 11.039 0 10.5304 0 10V2C0 1.46957 0.210865 0.96101 0.585938 0.585938C0.96101 0.210865 1.46957 0 2 0H14ZM2 1C1.73478 1 1.48051 1.10543 1.29297 1.29297C1.10543 1.48051 1 1.73478 1 2V10C1 10.2652 1.10543 10.5195 1.29297 10.707C1.48051 10.8946 1.73478 11 2 11H14C14.2652 11 14.5195 10.8946 14.707 10.707C14.8946 10.5195 15 10.2652 15 10V2C15 1.73478 14.8946 1.48051 14.707 1.29297C14.5195 1.10543 14.2652 1 14 1H2ZM13.5 9H12.5V3H13.5V9Z" fill="#666666"/>
</svg>
