<svg width="18" height="14" viewBox="0 0 18 14" fill="none" xmlns="http://www.w3.org/2000/svg">
<path d="M16.5 0C17.3284 0 18 0.671573 18 1.5V12.5L17.9922 12.6533C17.9205 13.3593 17.3593 13.9205 16.6533 13.9922L16.5 14H1.5L1.34668 13.9922C0.64069 13.9205 0.0794912 13.3593 0.0078125 12.6533L0 12.5V1.5C6.4426e-08 0.671573 0.671573 2.41596e-08 1.5 0H16.5ZM1.5 12.5H16.5V1.5H1.5V12.5ZM7.69043 3.25C7.89288 3.25 8.09275 3.29236 8.27637 3.37402L8.4541 3.46875L11.4648 5.35059C11.9186 5.63418 12.1943 6.13192 12.1943 6.66699C12.1942 7.20194 11.9185 7.69889 11.4648 7.98242L8.4541 9.86426C8.22516 10.0073 7.96039 10.083 7.69043 10.083C6.89488 10.0828 6.25001 9.43817 6.25 8.64258V4.69043C6.25019 3.89499 6.89499 3.25019 7.69043 3.25ZM7.75 8.53516L10.6699 6.71094C10.685 6.70151 10.6942 6.68476 10.6943 6.66699C10.6943 6.64913 10.685 6.63254 10.6699 6.62305L7.75 4.79785V8.53516Z" fill="#999999"/>
</svg>
