<svg width="18" height="18" viewBox="0 0 18 18" fill="none" xmlns="http://www.w3.org/2000/svg">
<path d="M16.5 9.75C16.9142 9.75 17.25 9.41422 17.25 9C17.25 8.58579 16.9142 8.25 16.5 8.25V9V9.75ZM17 9H16.25C16.25 13.0041 13.0041 16.25 9 16.25V17V17.75C13.8325 17.75 17.75 13.8325 17.75 9H17ZM9 17V16.25C4.99594 16.25 1.75 13.0041 1.75 9H1H0.25C0.25 13.8325 4.16751 17.75 9 17.75V17ZM1 9H1.75C1.75 4.99594 4.99594 1.75 9 1.75V1V0.25C4.16751 0.25 0.25 4.16751 0.25 9H1ZM9 1V1.75C13.0041 1.75 16.25 4.99594 16.25 9H17H17.75C17.75 4.16751 13.8325 0.25 9 0.25V1ZM9 17V16.25C8.7649 16.25 8.48181 16.1442 8.15894 15.8321C7.83246 15.5165 7.50419 15.0235 7.21224 14.3562C6.62932 13.0239 6.25 11.1307 6.25 9H5.5H4.75C4.75 11.2876 5.15418 13.3944 5.83801 14.9575C6.17944 15.7379 6.60535 16.4165 7.11635 16.9105C7.63095 17.408 8.2686 17.75 9 17.75V17ZM5.5 9H6.25C6.25 6.86928 6.62932 4.97615 7.21224 3.64376C7.50419 2.97645 7.83246 2.48352 8.15894 2.16789C8.48181 1.85575 8.7649 1.75 9 1.75V1V0.25C8.2686 0.25 7.63095 0.591964 7.11635 1.08947C6.60535 1.58348 6.17944 2.26212 5.83801 3.04253C5.15418 4.60557 4.75 6.71244 4.75 9H5.5ZM9 17V17.75C9.7314 17.75 10.3691 17.408 10.8837 16.9105C11.3946 16.4165 11.8206 15.7379 12.162 14.9575C12.8458 13.3944 13.25 11.2876 13.25 9H12.5H11.75C11.75 11.1307 11.3707 13.0239 10.7878 14.3562C10.4958 15.0235 10.1675 15.5165 9.84106 15.8321C9.51819 16.1442 9.2351 16.25 9 16.25V17ZM12.5 9H13.25C13.25 6.71244 12.8458 4.60557 12.162 3.04253C11.8206 2.26212 11.3946 1.58348 10.8837 1.08947C10.3691 0.591964 9.7314 0.25 9 0.25V1V1.75C9.2351 1.75 9.51819 1.85575 9.84106 2.16789C10.1675 2.48352 10.4958 2.97645 10.7878 3.64376C11.3707 4.97615 11.75 6.86928 11.75 9H12.5ZM1 9L1 9.75L16.5 9.75V9V8.25L1 8.25L1 9Z" fill="#999999"/>
</svg>
