<svg width="16" height="16" viewBox="0 0 16 16" fill="none" xmlns="http://www.w3.org/2000/svg">
<path d="M3.08285 11.3563C3.36911 11.6557 3.84386 11.6664 4.14324 11.3801C4.44262 11.0938 4.45325 10.6191 4.16699 10.3197L3.62492 10.838L3.08285 11.3563ZM1 8.09283L0.457928 7.57451C0.180691 7.86445 0.180691 8.32122 0.457928 8.61116L1 8.09283ZM4.16699 5.86597C4.45325 5.56659 4.44262 5.09183 4.14324 4.80557C3.84386 4.51931 3.36911 4.52994 3.08285 4.82932L3.62492 5.34764L4.16699 5.86597ZM12.9172 4.82932C12.6309 4.52994 12.1561 4.51931 11.8568 4.80557C11.5574 5.09183 11.5467 5.56659 11.833 5.86597L12.3751 5.34764L12.9172 4.82932ZM15 8.09283L15.5421 8.61116C15.8193 8.32122 15.8193 7.86445 15.5421 7.57451L15 8.09283ZM11.833 10.3197C11.5467 10.6191 11.5574 11.0938 11.8568 11.3801C12.1561 11.6664 12.6309 11.6557 12.9172 11.3563L12.3751 10.838L11.833 10.3197ZM6.02209 12.8148C5.91978 13.2161 6.16222 13.6245 6.5636 13.7268C6.96498 13.8291 7.3733 13.5866 7.47561 13.1853L6.74885 13L6.02209 12.8148ZM7.99979 8.09239L7.27347 7.90538L7.27303 7.90714L7.99979 8.09239ZM10.0373 3.18701C10.1405 2.78588 9.89909 2.37697 9.49795 2.27369C9.09682 2.17041 8.68792 2.41186 8.58464 2.81299L9.31095 3L10.0373 3.18701ZM3.62492 10.838L4.16699 10.3197L1.54207 7.57451L1 8.09283L0.457928 8.61116L3.08285 11.3563L3.62492 10.838ZM1 8.09283L1.54207 8.61116L4.16699 5.86597L3.62492 5.34764L3.08285 4.82932L0.457928 7.57451L1 8.09283ZM12.3751 5.34764L11.833 5.86597L14.4579 8.61116L15 8.09283L15.5421 7.57451L12.9172 4.82932L12.3751 5.34764ZM15 8.09283L14.4579 7.57451L11.833 10.3197L12.3751 10.838L12.9172 11.3563L15.5421 8.61116L15 8.09283ZM6.74885 13L7.47561 13.1853L8.72655 8.27764L7.99979 8.09239L7.27303 7.90714L6.02209 12.8148L6.74885 13ZM7.99979 8.09239L8.7261 8.27939L10.0373 3.18701L9.31095 3L8.58464 2.81299L7.27348 7.90538L7.99979 8.09239Z" fill="#999999"/>
</svg>
